<?xml version="1.0" standalone="no"?>
<!DOCTYPE svg PUBLIC "-//W3C//DTD SVG 20010904//EN"
 "http://www.w3.org/TR/2001/REC-SVG-20010904/DTD/svg10.dtd">
<svg version="1.0" xmlns="http://www.w3.org/2000/svg"
 width="300.000000pt" height="300.000000pt" viewBox="0 0 300.000000 300.000000"
 preserveAspectRatio="xMidYMid meet">
<metadata>
Created by potrace 1.11, written by Peter Selinger 2001-2013
</metadata>
<g transform="translate(0.000000,300.000000) scale(0.100000,-0.100000)"
fill="#000000" stroke="none">
<path d="M1311 2745 c-250 -56 -454 -193 -593 -398 -52 -77 -101 -184 -130
-283 -23 -77 -23 -88 -23 -564 0 -476 0 -487 23 -564 96 -331 337 -572 668
-668 68 -20 102 -23 244 -23 142 0 176 3 244 23 350 101 606 373 677 717 17
79 19 140 19 515 0 375 -2 436 -19 515 -70 342 -327 615 -672 716 -97 28 -341
36 -438 14z m319 -25 c110 -18 170 -38 170 -58 0 -89 -88 -211 -182 -252 -72
-32 -164 -32 -235 -1 -96 42 -183 162 -183 252 0 47 269 84 430 59z m-457 -97
c3 -21 8 -45 11 -54 6 -12 -24 -25 -161 -67 -92 -28 -169 -49 -171 -47 -15 15
266 204 304 205 6 0 14 -17 17 -37z m730 11 c29 -15 77 -44 107 -64 63 -43
152 -124 130 -117 -8 2 -86 26 -173 52 -128 40 -156 52 -151 64 3 9 8 33 11
54 3 20 10 37 15 37 5 0 32 -12 61 -26z m-677 -141 c9 -16 32 -42 51 -59 l33
-31 -302 -254 c-166 -140 -329 -276 -362 -304 l-59 -49 7 84 c14 166 83 358
169 470 34 45 35 45 228 106 107 34 199 62 205 63 7 1 20 -11 30 -26z m784
-38 c217 -66 219 -68 300 -230 56 -113 86 -221 96 -345 l7 -84 -59 49 c-33 28
-196 164 -362 304 l-302 254 33 31 c19 17 42 43 52 59 11 17 24 26 34 23 9 -3
99 -30 201 -61z m-516 -105 c27 0 76 7 108 16 l57 16 173 -145 c95 -80 263
-221 373 -314 l200 -169 0 -349 c0 -335 -1 -354 -24 -443 -13 -50 -27 -92 -32
-92 -5 0 -32 15 -61 34 -108 68 -278 140 -406 171 l-73 17 28 30 c15 16 63 47
106 68 68 33 83 37 115 29 76 -17 166 18 204 78 l20 33 -27 10 c-73 28 -197
-3 -232 -57 -9 -13 -44 -37 -77 -52 -69 -32 -151 -91 -190 -137 -40 -49 -83
-149 -96 -224 -7 -41 -10 -143 -8 -252 3 -179 4 -184 31 -230 15 -26 37 -54
49 -62 12 -9 20 -18 17 -20 -11 -11 -186 -36 -249 -36 -63 0 -238 25 -249 36
-3 2 5 11 17 20 12 8 34 36 49 62 27 46 28 51 31 230 2 109 -1 211 -8 252 -13
75 -56 175 -96 224 -39 46 -121 105 -190 137 -33 15 -68 39 -77 52 -35 54
-159 85 -232 57 l-27 -10 20 -33 c38 -59 130 -94 205 -78 31 7 47 3 114 -29
43 -21 91 -52 106 -68 l28 -29 -73 -18 c-130 -31 -333 -119 -430 -187 -14 -10
-30 -18 -36 -18 -5 0 -20 39 -33 87 -22 83 -23 110 -27 440 l-4 351 283 239
c156 131 326 274 377 319 l94 80 52 -18 c28 -9 73 -17 100 -18z m-594 -1053
c59 -31 62 -47 11 -47 -61 0 -149 40 -135 61 10 17 81 9 124 -14z m1324 8 c-1
-19 -88 -55 -132 -55 -55 0 -52 16 9 48 45 23 125 28 123 7z m-962 -308 c29
-57 63 -206 50 -218 -4 -3 -45 -15 -92 -26 -111 -27 -227 -73 -319 -129 -40
-24 -76 -44 -80 -44 -12 1 -82 100 -121 173 l-41 76 38 24 c131 82 251 136
403 181 118 35 127 33 162 -37z m686 22 c102 -33 264 -107 345 -159 l48 -31
-36 -67 c-36 -68 -115 -182 -126 -182 -4 0 -40 20 -80 44 -93 56 -207 102
-324 131 l-90 22 3 49 c4 58 33 147 63 199 21 35 24 37 61 31 21 -4 83 -20
136 -37z m-630 -431 c-3 -112 -8 -140 -26 -175 -23 -45 -69 -83 -99 -83 -62 0
-356 191 -338 221 11 17 142 88 220 119 96 38 227 71 239 60 4 -5 6 -68 4
-142z m547 105 c66 -21 178 -74 240 -114 l50 -32 -45 -39 c-90 -81 -256 -178
-303 -178 -30 0 -76 38 -99 83 -18 35 -23 64 -26 169 -2 70 -2 134 1 142 5 13
14 13 69 0 35 -8 86 -22 113 -31z"/>
<path d="M1479 2097 c-70 -53 -78 -184 -15 -236 11 -10 16 -31 16 -74 l0 -62
-79 79 c-55 54 -84 77 -95 73 -9 -4 -16 -10 -16 -15 0 -5 43 -49 95 -99 l95
-91 0 -154 0 -153 -25 30 c-18 22 -24 42 -25 78 0 57 -18 95 -60 131 -32 26
-105 54 -116 43 -14 -13 -16 -98 -4 -127 16 -39 83 -97 121 -105 20 -5 42 -24
70 -61 l40 -54 -3 -120 -3 -121 -85 123 c-47 67 -133 192 -192 277 -102 145
-108 157 -108 203 0 82 -46 140 -134 168 -50 16 -58 5 -53 -73 4 -68 34 -106
110 -142 45 -21 72 -51 144 -162 16 -23 15 -23 -68 7 -46 17 -86 34 -90 38 -3
4 -17 23 -32 43 -37 51 -99 79 -173 79 -76 0 -88 -8 -74 -46 29 -75 102 -116
215 -120 61 -2 103 -11 175 -37 l95 -34 137 -194 137 -194 1 -92 c0 -86 1 -93
20 -93 19 0 20 7 20 93 l1 92 137 194 137 194 108 37 c83 28 124 37 175 37 98
0 174 44 202 117 14 37 2 46 -65 46 -93 0 -156 -32 -205 -107 -9 -14 -47 -34
-99 -53 l-83 -30 18 28 c87 130 96 140 138 156 23 9 57 32 76 51 29 30 34 43
37 92 5 78 -3 89 -53 73 -88 -28 -134 -86 -134 -167 0 -47 -7 -59 -192 -326
l-193 -278 -3 120 -3 121 40 54 c28 37 50 56 70 61 38 8 105 66 121 105 12 29
10 114 -4 127 -11 11 -84 -17 -116 -43 -42 -36 -60 -74 -60 -131 -1 -36 -7
-56 -25 -78 l-25 -30 0 154 0 153 95 90 c52 49 95 94 95 99 0 5 -7 12 -16 16
-11 4 -40 -19 -95 -73 l-79 -79 0 62 c0 43 5 64 16 74 63 52 55 183 -15 236
-20 15 -22 15 -42 0z m45 -56 c26 -28 30 -81 9 -121 -10 -19 -25 -35 -33 -35
-23 0 -52 65 -46 104 5 31 30 71 46 71 4 0 15 -8 24 -19z m-521 -273 c32 -23
57 -67 57 -103 0 -29 -10 -31 -48 -11 -45 23 -73 61 -79 106 -6 41 -5 42 18
35 13 -4 36 -16 52 -27z m1064 -10 c-6 -47 -55 -103 -99 -113 -26 -7 -28 -5
-28 22 0 39 36 91 80 114 49 27 53 24 47 -23z m-739 -168 c61 -37 99 -140 52
-140 -47 0 -122 103 -106 145 7 20 15 19 54 -5z m398 -4 c11 -45 -60 -136
-107 -136 -46 0 -7 103 53 140 42 25 46 25 54 -4z m-871 -7 c22 -6 55 -27 75
-48 l35 -36 -35 -3 c-47 -5 -102 13 -140 44 -57 48 -27 68 65 43z m1385 -2 c0
-35 -90 -87 -150 -87 -47 0 -52 15 -16 49 44 42 166 69 166 38z"/>
<path d="M1084 1915 c-8 -45 3 -102 27 -141 22 -36 78 -67 112 -62 20 3 22 10
25 68 2 51 -2 72 -18 98 -24 39 -75 72 -112 72 -23 0 -28 -5 -34 -35z m116
-58 c27 -43 27 -107 1 -107 -44 0 -98 93 -85 147 6 21 7 22 35 7 17 -8 39 -29
49 -47z"/>
<path d="M1822 1930 c-53 -33 -73 -75 -70 -150 l3 -65 36 1 c86 2 149 112 123
212 -8 28 -47 29 -92 2z m62 -36 c17 -44 -42 -144 -85 -144 -41 0 -16 110 33
144 29 20 44 20 52 0z"/>
</g>
</svg>
